# Wavefront Obj file
# 
# verts: 70 uv-s: 204
mtllib Indiana University Logo.mtl

g Mesh1
#pivot 0.000000 0.000000 0.000000

v -83.468964 214.795700 -230.886261
v 104.510010 329.148163 -230.886261
v 104.510010 329.148163 72.136253
v -83.468964 214.795700 72.136253
v 155.749557 61.258095 -230.886261
v 297.339417 603.439575 -230.886261
v -318.247803 438.742371 -230.886261
v -518.554382 136.055984 -230.886261
v -343.269958 2327.337158 -230.886261
v -551.524353 1442.261841 -230.886261
v -875.529053 1945.258789 -230.886261
v 326.111816 1942.757080 -230.886261
v -17.495012 1460.168945 -230.886261
v -134.009338 2242.051758 -230.886261
v -241.589767 405.885742 -230.886261
v 253.070587 186.934570 -230.886261
v 154.390732 2708.635010 -230.886261
v 14.286852 1699.120239 -230.886261
v -345.384583 2234.363525 -230.886261
v 931.147888 2234.344727 -230.886261
v 573.510986 1699.219360 -230.886261
v 427.234192 2708.244629 -230.886261
v 331.127258 187.810104 -230.886261
v 824.224365 407.479095 -230.886261
v 714.727173 2240.166748 -230.886261
v 605.159851 1459.239746 -230.886261
v 261.927765 1942.334473 -230.886261
v 1455.095825 1944.945068 -230.886261
v 1136.216797 1440.709595 -230.886261
v 920.478516 2328.069336 -230.886261
v 1099.984863 130.906250 -230.886261
v 892.056702 435.600769 -230.886261
v 290.823517 603.518250 -230.886261
v 442.301270 26.680490 -230.886261
v 569.273315 369.938965 -230.886261
v 934.568115 -105.100525 -230.886261
v -366.481018 -99.017387 -230.886261
v 155.749557 61.258095 72.136253
v -366.481018 -99.017387 72.136253
v 934.568115 -105.100525 72.136253
v 569.273315 369.938965 72.136253
v 442.301270 26.680490 72.136253
v 290.823517 603.518250 72.136253
v 892.056702 435.600769 72.136253
v 1099.984863 130.906250 72.136253
v 920.478516 2328.069336 72.136253
v 1136.216797 1440.709595 72.136253
v 1455.095825 1944.945068 72.136253
v 261.927765 1942.334473 72.136253
v 605.159851 1459.239746 72.136253
v 714.727173 2240.166748 72.136253
v 824.224365 407.479095 72.136253
v 331.127258 187.810104 72.136253
v 427.234192 2708.244629 72.136253
v 573.510986 1699.219360 72.136253
v 931.147888 2234.344727 72.136253
v -345.384583 2234.363525 72.136253
v 14.286852 1699.120239 72.136253
v 154.390732 2708.635010 72.136253
v 253.070587 186.934570 72.136253
v -241.589767 405.885742 72.136253
v -134.009338 2242.051758 72.136253
v -17.495012 1460.168945 72.136253
v 326.111816 1942.757080 72.136253
v -875.529053 1945.258789 72.136253
v -551.524353 1442.261841 72.136253
v -343.269958 2327.337158 72.136253
v -518.554382 136.055984 72.136253
v -318.247803 438.742371 72.136253
v 297.339417 603.439575 72.136253
# 70 positions

vt 0.691901 0.547858
vt 0.691901 0.547796
vt 0.738024 0.547796
vt 0.738024 0.547858
vt 0.563387 0.165348
vt 0.563387 0.165410
vt 0.563387 0.201565
vt 0.493852 0.201565
vt 0.493852 0.098966
vt 0.434352 0.040882
vt 0.133874 0.040882
vt 0.133874 0.005000
vt 0.087642 0.005000
vt 0.087642 0.165344
vt 0.133874 0.165344
vt 0.133874 0.132767
vt 0.393512 0.132767
vt 0.393512 0.201717
vt 0.051760 0.201717
vt 0.051760 0.165344
vt 0.005000 0.165344
vt 0.005000 0.335640
vt 0.051760 0.335640
vt 0.051760 0.298486
vt 0.393313 0.298486
vt 0.393313 0.367218
vt 0.134147 0.367218
vt 0.134147 0.335640
vt 0.087805 0.335640
vt 0.087805 0.494877
vt 0.134147 0.494877
vt 0.134147 0.458158
vt 0.435351 0.458158
vt 0.494888 0.399853
vt 0.494888 0.299016
vt 0.563566 0.299016
vt 0.563566 0.335534
vt 0.624144 0.335534
vt 0.624144 0.165348
vt 0.691901 0.584013
vt 0.738024 0.584013
vt 0.743518 0.798005
vt 0.743518 0.798068
vt 0.804276 0.798068
vt 0.804276 0.627881
vt 0.743697 0.627881
vt 0.743697 0.664399
vt 0.675020 0.664399
vt 0.675020 0.563562
vt 0.615482 0.505257
vt 0.314278 0.505257
vt 0.314278 0.468538
vt 0.267936 0.468538
vt 0.267936 0.627776
vt 0.314278 0.627776
vt 0.314278 0.596197
vt 0.573444 0.596197
vt 0.573444 0.664929
vt 0.231891 0.664929
vt 0.231891 0.627776
vt 0.185131 0.627776
vt 0.185131 0.798071
vt 0.231891 0.798071
vt 0.231891 0.761699
vt 0.573644 0.761699
vt 0.573644 0.830648
vt 0.314005 0.830648
vt 0.314005 0.798071
vt 0.267774 0.798071
vt 0.267774 0.958415
vt 0.314005 0.958415
vt 0.314005 0.922533
vt 0.614483 0.922533
vt 0.673983 0.864449
vt 0.673983 0.761851
vt 0.743518 0.761851
vt 0.115481 0.829291
vt 0.176238 0.829291
vt 0.176238 0.783167
vt 0.115481 0.783167
vt 0.778364 0.225961
vt 0.778364 0.396147
vt 0.824488 0.396147
vt 0.824488 0.225961
vt 0.115481 0.727927
vt 0.176059 0.727927
vt 0.176059 0.774051
vt 0.115481 0.774051
vt 0.720722 0.538680
vt 0.720722 0.502162
vt 0.766845 0.502162
vt 0.766845 0.538680
vt 0.747141 0.547796
vt 0.815818 0.547796
vt 0.815818 0.593920
vt 0.747141 0.593920
vt 0.106364 0.785532
vt 0.106364 0.684695
vt 0.060240 0.684695
vt 0.060240 0.785532
vt 0.634259 0.115481
vt 0.693796 0.115481
vt 0.693796 0.161604
vt 0.634259 0.161604
vt 0.995000 0.115481
vt 0.995000 0.161604
vt 0.711605 0.538881
vt 0.711605 0.502162
vt 0.665481 0.502162
vt 0.665481 0.538881
vt 0.115481 0.672687
vt 0.161822 0.672687
vt 0.161822 0.718810
vt 0.115481 0.718810
vt 0.115481 0.663802
vt 0.115481 0.504564
vt 0.161605 0.504564
vt 0.161605 0.663802
vt 0.634259 0.327325
vt 0.680601 0.327325
vt 0.680601 0.281201
vt 0.634259 0.281201
vt 0.677981 0.375225
vt 0.677981 0.343647
vt 0.631857 0.343647
vt 0.631857 0.375225
vt 0.634259 0.216845
vt 0.893425 0.216845
vt 0.893425 0.170721
vt 0.634259 0.170721
vt 0.689499 0.294693
vt 0.689499 0.225961
vt 0.735623 0.225961
vt 0.735623 0.294693
vt 0.518975 0.060240
vt 0.860528 0.060240
vt 0.860528 0.106364
vt 0.518975 0.106364
vt 0.613134 0.152634
vt 0.613134 0.115481
vt 0.567010 0.115481
vt 0.567010 0.152634
vt 0.634259 0.225961
vt 0.681019 0.225961
vt 0.681019 0.272085
vt 0.634259 0.272085
vt 0.060240 0.674860
vt 0.060240 0.504564
vt 0.106364 0.504564
vt 0.106364 0.674860
vt 0.170721 0.613133
vt 0.217481 0.613133
vt 0.217481 0.567010
vt 0.170721 0.567010
vt 0.051123 0.053381
vt 0.051123 0.017009
vt 0.005000 0.017009
vt 0.005000 0.053381
vt 0.461333 0.493046
vt 0.803084 0.493046
vt 0.803084 0.446922
vt 0.461333 0.446922
vt 0.005000 0.131592
vt 0.005000 0.062642
vt 0.051123 0.062642
vt 0.051123 0.131592
vt 0.509368 0.384477
vt 0.769006 0.384477
vt 0.769006 0.430600
vt 0.509368 0.430600
vt 0.243263 0.501115
vt 0.243263 0.468538
vt 0.197140 0.468538
vt 0.197140 0.501115
vt 0.170721 0.511769
vt 0.216952 0.511769
vt 0.216952 0.557893
vt 0.170721 0.557893
vt 0.005000 0.506393
vt 0.005000 0.346049
vt 0.051123 0.346049
vt 0.051123 0.506393
vt 0.005000 0.562697
vt 0.051231 0.562697
vt 0.051231 0.516573
vt 0.005000 0.516573
vt 0.051123 0.720578
vt 0.051123 0.684695
vt 0.005000 0.684695
vt 0.005000 0.720578
vt 0.461333 0.051124
vt 0.761811 0.051124
vt 0.761811 0.005000
vt 0.461333 0.005000
vt 0.821311 0.051124
vt 0.821311 0.005000
vt 0.051123 0.674412
vt 0.051123 0.571813
vt 0.005000 0.571813
vt 0.005000 0.674412
vt 0.689499 0.351343
vt 0.759033 0.351343
vt 0.759033 0.305219
vt 0.689499 0.305219
# 204 texture coordinates

vn 0.000000 1.000000 0.000000
vn 0.000000 0.000000 1.000000
vn 0.000000 0.000000 -1.000000
vn -1.000000 0.000000 0.000000
vn 0.000000 -1.000000 -0.000000
vn 1.000000 0.000000 0.000000
vn 0.000000 1.000000 0.000000
vn 0.714463 -0.699673 0.000000
vn 0.000000 -1.000000 0.000000
vn 0.000000 1.000000 0.000000
vn 0.000000 -1.000000 0.000000
vn 0.000000 1.000000 0.000000
vn 0.000000 1.000000 0.000000
vn 0.000000 -1.000000 0.000000
vn 0.000000 1.000000 0.000000
vn -0.715569 -0.698542 0.000000
vn 0.000000 -1.000000 0.000000
# 17 normals

usemtl Color_A07
f 1/1/1 2/2/1 3/3/1 4/4/1
f 2/5/2 1/6/2 5/7/2 6/8/2 7/9/2 8/10/2 9/11/2 10/12/2 11/13/2 12/14/2 13/15/2 14/16/2 15/17/2 16/18/2 17/19/2 18/20/2 19/21/2 20/22/2 21/23/2 22/24/2 23/25/2 24/26/2 25/27/2 26/28/2 27/29/2 28/30/2 29/31/2 30/32/2 31/33/2 32/34/2 33/35/2 34/36/2 35/37/2 36/38/2 37/39/2
f 5/40/1 1/1/1 4/4/1 38/41/1
f 4/42/3 3/43/3 39/44/3 40/45/3 41/46/3 42/47/3 43/48/3 44/49/3 45/50/3 46/51/3 47/52/3 48/53/3 49/54/3 50/55/3 51/56/3 52/57/3 53/58/3 54/59/3 55/60/3 56/61/3 57/62/3 58/63/3 59/64/3 60/65/3 61/66/3 62/67/3 63/68/3 64/69/3 65/70/3 66/71/3 67/72/3 68/73/3 69/74/3 70/75/3 38/76/3
f 2/77/4 37/78/4 39/79/4 3/80/4
f 37/81/5 36/82/5 40/83/5 39/84/5
f 36/85/6 35/86/6 41/87/6 40/88/6
f 35/89/7 34/90/7 42/91/7 41/92/7
f 34/93/6 33/94/6 43/95/6 42/96/6
f 33/97/5 32/98/5 44/99/5 43/100/5
f 32/101/8 31/102/8 45/103/8 44/104/8
f 31/102/6 30/105/6 46/106/6 45/103/6
f 30/107/9 29/108/9 47/109/9 46/110/9
f 29/111/6 28/112/6 48/113/6 47/114/6
f 28/115/10 27/116/10 49/117/10 48/118/10
f 27/119/4 26/120/4 50/121/4 49/122/4
f 26/123/9 25/124/9 51/125/9 50/126/9
f 25/127/4 24/128/4 52/129/4 51/130/4
f 24/131/7 23/132/7 53/133/7 52/134/7
f 23/135/6 22/136/6 54/137/6 53/138/6
f 22/139/11 21/140/11 55/141/11 54/142/11
f 21/143/6 20/144/6 56/145/6 55/146/6
f 20/147/12 19/148/12 57/149/12 56/150/12
f 19/151/4 18/152/4 58/153/4 57/154/4
f 18/155/11 17/156/11 59/157/11 58/158/11
f 17/159/4 16/160/4 60/161/4 59/162/4
f 16/163/13 15/164/13 61/165/13 60/166/13
f 15/167/6 14/168/6 62/169/6 61/170/6
f 14/171/14 13/172/14 63/173/14 62/174/14
f 13/175/6 12/176/6 64/177/6 63/178/6
f 12/179/15 11/180/15 65/181/15 64/182/15
f 11/183/4 10/184/4 66/185/4 65/186/4
f 10/187/14 9/188/14 67/189/14 66/190/14
f 9/191/4 8/192/4 68/193/4 67/194/4
f 8/192/16 7/195/16 69/196/16 68/193/16
f 7/197/17 6/198/17 70/199/17 69/200/17
f 6/201/4 5/202/4 38/203/4 70/204/4

# 37 faces
